# xmcd
#
# Track frame offsets:
#	150
#	12888
#	27551
#	39248
#	48749
#	57063
#	66531
#	78915
#
# Disc length: 1197 seconds
#
# Revision: 0
# Processed by: cddbd v1.5.1PL2 Copyright (c) Steve Scherf et al.
# Submitted via: dBpowerAMP V4.0
#
DISCID=6404ab08
DTITLE=The Grasshoppers - The Grasshoppers
DYEAR=2002
DGENRE=Bluegrass
TTITLE0=Red Haired Boy
TTITLE1=Dirty Old Town
TTITLE2=Drowsy Maggie
TTITLE3=Maries Wedding
TTITLE4=Step It Out Mary
TTITLE5=Opus 38
TTITLE6=Whiskey In The Jar
TTITLE7=King Of The Ferries
EXTD=
EXTT0=
EXTT1=
EXTT2=
EXTT3=
EXTT4=
EXTT5=
EXTT6=
EXTT7=
PLAYORDER=
